<svg id="visual" viewBox="0 0 900 600" width="900" height="600" xmlns="http://www.w3.org/2000/svg" xmlns:xlink="http://www.w3.org/1999/xlink" version="1.1"><rect x="0" y="0" width="900" height="600" fill="#FFFFF0"></rect><path d="M0 47L30 51.8C60 56.7 120 66.3 180 69C240 71.7 300 67.3 360 60.8C420 54.3 480 45.7 540 44.8C600 44 660 51 720 57.8C780 64.7 840 71.3 870 74.7L900 78L900 0L870 0C840 0 780 0 720 0C660 0 600 0 540 0C480 0 420 0 360 0C300 0 240 0 180 0C120 0 60 0 30 0L0 0Z" fill="#f2f2f2" stroke-linecap="round" stroke-linejoin="miter"></path></svg>